<?xml version="1.0" encoding="utf-8"?>
<!-- Generator: Adobe Illustrator 16.0.0, SVG Export Plug-In . SVG Version: 6.00 Build 0)  -->
<!DOCTYPE svg PUBLIC "-//W3C//DTD SVG 1.1//EN" "http://www.w3.org/Graphics/SVG/1.1/DTD/svg11.dtd">
<svg version="1.1" id="Layer_1" xmlns="http://www.w3.org/2000/svg" xmlns:xlink="http://www.w3.org/1999/xlink" x="0px" y="0px"
	 width="595.275px" height="1097px" viewBox="0 0 595.275 1097" enable-background="new 0 0 595.275 1097" xml:space="preserve">
<path fill="#FFFFFF" d="M286.186,360.376l26.844,16.356l-26.844,16.384l-26.844-16.384L286.186,360.376L286.186,360.376z"/>
<path fill="none" stroke="#1C1C1C" stroke-linejoin="round" d="M286.186,360.376l26.844,16.356l-26.844,16.384l-26.844-16.384
	L286.186,360.376L286.186,360.376z"/>
<g>
	<text transform="matrix(1 0 0 1 278.9004 380.1343)" fill="#333333" font-family="'MyriadPro-Regular'" font-size="10.0063">       </text>
	<text transform="matrix(1 0 0 1 278.9004 380.1343)" fill="#333333" font-family="'MyriadPro-Regular'" font-size="10.0063">h</text>
	<text transform="matrix(1 0 0 1 284.3145 380.1343)" fill="#333333" font-family="'MyriadPro-Regular'" font-size="10.0063">a</text>
	<text transform="matrix(1 0 0 1 289.2188 380.1343)" fill="#333333" font-family="'MyriadPro-Regular'" font-size="10.0063">s</text>
</g>
<g>
	<path id="Drawing_18_0" fill="none" stroke="#808080" stroke-linejoin="round" d="M351.27,364.819h-19.134v-25.086H313.03"/>
</g>
<g>
	<path id="Drawing_19_0" fill="none" stroke="#808080" stroke-linejoin="round" d="M259.37,376.732h-19.049v-0.482h-19.587"/>
</g>
<g id="Drawing_20">
	<path fill="#FFFFFF" d="M331.767,358.951h-6.49v-12.869h12.981v12.869H331.767z"/>
	<path fill="none" stroke="#FFFFFF" stroke-linejoin="round" d="M331.767,358.951h-6.49v-12.869h12.981v12.869H331.767z"/>
	<g>
		<text transform="matrix(1 0 0 1 329.4717 356.9683)" fill="#808080" font-family="'MyriadPro-Regular'" font-size="13.011">1</text>
	</g>
</g>
<path fill="#FFFFFF" d="M138.161,359.611c-2.948,0-5.868,2.92-5.868,5.868v23.584c0,2.948,2.919,5.896,5.868,5.896h77.244
	c2.919,0,5.868-2.948,5.868-5.896v-23.584c0-2.948-2.948-5.868-5.868-5.868H138.161z"/>
<path fill="none" stroke="#1C1C1C" stroke-linejoin="round" d="M138.161,359.611c-2.948,0-5.868,2.92-5.868,5.868v23.584
	c0,2.948,2.919,5.896,5.868,5.896h77.244c2.919,0,5.868-2.948,5.868-5.896v-23.584c0-2.948-2.948-5.868-5.868-5.868H138.161z"/>
<path fill="#FFFFFF" d="M196.696,337.387c2.522,0,4.479,1.701,4.479,3.94c0,2.239-1.956,3.94-4.479,3.94s-4.451-1.701-4.451-3.94
	C192.245,339.088,194.173,337.387,196.696,337.387z"/>
<path id="Drawing_22_0" fill="none" stroke="#1C1C1C" stroke-linejoin="round" d="M196.696,337.387c2.522,0,4.479,1.701,4.479,3.94
	c0,2.239-1.956,3.94-4.479,3.94s-4.451-1.701-4.451-3.94C192.245,339.088,194.173,337.387,196.696,337.387z"/>
<g>
	<path id="Drawing_24_0" fill="none" stroke="#000000" stroke-linejoin="round" d="M196.753,345.268l-0.085,14.372"/>
</g>
<path fill="#FFFFFF" d="M171.524,321.684c2.58,0,4.535,1.701,4.535,3.94s-1.956,3.94-4.535,3.94s-4.536-1.701-4.536-3.94
	S168.945,321.684,171.524,321.684z"/>
<path id="Drawing_25_0" fill="none" stroke="#1C1C1C" stroke-linejoin="round" d="M171.524,321.684c2.58,0,4.535,1.701,4.535,3.94
	s-1.956,3.94-4.535,3.94s-4.536-1.701-4.536-3.94S168.945,321.684,171.524,321.684z"/>
<g>
	<path id="Drawing_26_0" fill="none" stroke="#000000" stroke-linejoin="round" d="M171.524,329.564l0.312,30.585"/>
</g>
<path fill="#1C1C1C" d="M145.559,337.473c2.58,0,4.536,1.701,4.536,3.94c0,2.239-1.956,3.94-4.536,3.94s-4.536-1.701-4.536-3.94
	C141.023,339.174,142.979,337.473,145.559,337.473z"/>
<path id="Drawing_27_0" fill="none" stroke="#1C1C1C" stroke-linejoin="round" d="M145.559,337.473c2.58,0,4.536,1.701,4.536,3.94
	c0,2.239-1.956,3.94-4.536,3.94s-4.536-1.701-4.536-3.94C141.023,339.174,142.979,337.473,145.559,337.473z"/>
<g>
	<path id="Drawing_28_0" fill="none" stroke="#000000" stroke-linejoin="round" d="M145.559,345.353l0.369,14.287"/>
</g>
<g>
	<path id="Drawing_31_0" fill="none" stroke="#000000" stroke-linejoin="round" d="M213.931,345.268l-0.312,14.372"/>
</g>
<path fill="#FFFFFF" d="M213.931,337.387c2.551,0,4.507,1.701,4.507,3.94c0,2.239-1.956,3.94-4.507,3.94
	c-2.551,0-4.507-1.701-4.507-3.94C209.424,339.088,211.379,337.387,213.931,337.387z"/>
<path id="Drawing_33_0" fill="none" stroke="#1C1C1C" stroke-linejoin="round" d="M213.931,337.387c2.551,0,4.507,1.701,4.507,3.94
	c0,2.239-1.956,3.94-4.507,3.94c-2.551,0-4.507-1.701-4.507-3.94C209.424,339.088,211.379,337.387,213.931,337.387z"/>
<g id="Drawing_59">
	<path fill="#FFFFFF" d="M244.12,379.936h-5.783v-10.46h11.565v10.46H244.12z"/>
	<path fill="none" stroke="#FFFFFF" stroke-linejoin="round" d="M244.12,379.936h-5.783v-10.46h11.565v10.46H244.12z"/>
	<g>
		<text transform="matrix(1 0 0 1 242.3618 378.1226)" font-family="'MyriadPro-Regular'" font-size="10.0063">1</text>
	</g>
</g>
<path fill="#FFFFFF" d="M258.038,184.847l33.506,12.926l-33.506,12.926l-33.505-12.926L258.038,184.847L258.038,184.847z"/>
<path fill="none" stroke="#333333" stroke-linejoin="round" d="M258.038,184.847l33.506,12.926l-33.506,12.926l-33.505-12.926
	L258.038,184.847L258.038,184.847z"/>
<g>
	<text transform="matrix(1 0 0 1 241.8799 201.1753)" fill="#333333" font-family="'MyriadPro-Regular'" font-size="10.0063">       </text>
	<text transform="matrix(1 0 0 1 241.8799 201.1753)" fill="#333333" font-family="'MyriadPro-Regular'" font-size="10.0063">c</text>
	<text transform="matrix(1 0 0 1 246.3306 201.1753)" fill="#333333" font-family="'MyriadPro-Regular'" font-size="10.0063">r</text>
	<text transform="matrix(1 0 0 1 249.7886 201.1753)" fill="#333333" font-family="'MyriadPro-Regular'" font-size="10.0063">e</text>
	<text transform="matrix(1 0 0 1 254.9478 201.1753)" fill="#333333" font-family="'MyriadPro-Regular'" font-size="10.0063">a</text>
	<text transform="matrix(1 0 0 1 259.8799 201.1753)" fill="#333333" font-family="'MyriadPro-Regular'" font-size="10.0063">t</text>
	<text transform="matrix(1 0 0 1 263.48 201.1753)" fill="#333333" font-family="'MyriadPro-Regular'" font-size="10.0063">e</text>
	<text transform="matrix(1 0 0 1 268.6392 201.1753)" fill="#333333" font-family="'MyriadPro-Regular'" font-size="10.0063">d</text>
</g>
<g>
	<path id="Drawing_72_0" fill="none" stroke="#808080" stroke-linejoin="round" d="M198.454,162.283v35.49h26.107"/>
</g>
<g>
	<path id="Drawing_73_0" fill="none" stroke="#808080" stroke-linejoin="round" d="M291.543,197.802h112.025V352.97"/>
</g>
<g id="Drawing_78">
	<path fill="#FFFFFF" d="M217.672,202.139h-5.754v-10.46h11.509v10.46H217.672z"/>
	<path fill="none" stroke="#FFFFFF" stroke-linejoin="round" d="M217.672,202.139h-5.754v-10.46h11.509v10.46H217.672z"/>
	<g>
		<text transform="matrix(1 0 0 1 215.376 201.3462)" fill="#666666" font-family="'MyriadPro-Regular'" font-size="13.011">1</text>
	</g>
</g>
<g id="Drawing_79">
	<path fill="#FFFFFF" d="M244.12,379.936h-5.783v-10.46h11.565v10.46H244.12z"/>
	<path fill="none" stroke="#FFFFFF" stroke-linejoin="round" d="M244.12,379.936h-5.783v-10.46h11.565v10.46H244.12z"/>
	<g>
		<text transform="matrix(1 0 0 1 241.8232 379.1431)" fill="#666666" font-family="'MyriadPro-Regular'" font-size="13.011">1</text>
	</g>
</g>
<g id="Drawing_84">
	<path fill="#FFFFFF" d="M310.535,202.195H298.29v-10.432h24.463v10.432H310.535z"/>
	<path fill="none" stroke="#FFFFFF" stroke-linejoin="round" d="M310.535,202.195H298.29v-10.432h24.463v10.432H310.535z"/>
	<g>
		<text transform="matrix(1 0 0 1 302.3438 201.4312)" fill="#666666" font-family="'MyriadPro-Regular'" font-size="13.011">0</text>
	</g>
	<g>
		<text transform="matrix(1 0 0 1 309.4307 201.4312)" fill="#666666" font-family="'MyriadPro-Regular'" font-size="10.0063">:</text>
		<text transform="matrix(1 0 0 1 311.9531 201.4312)" fill="#666666" font-family="'MyriadPro-Regular'" font-size="10.0063">N</text>
	</g>
</g>
<path fill="#FFFFFF" d="M286.838,130.989l26.844,16.354L286.838,163.7l-26.816-16.356L286.838,130.989L286.838,130.989z"/>
<path fill="none" stroke="#1C1C1C" stroke-linejoin="round" d="M286.838,130.989l26.844,16.354L286.838,163.7l-26.816-16.356
	L286.838,130.989L286.838,130.989z"/>
<g>
	<text transform="matrix(1 0 0 1 279.5811 150.7476)" fill="#333333" font-family="'MyriadPro-Regular'" font-size="10.0063">       </text>
	<text transform="matrix(1 0 0 1 279.5811 150.7476)" fill="#333333" font-family="'MyriadPro-Regular'" font-size="10.0063">h</text>
	<text transform="matrix(1 0 0 1 284.9951 150.7476)" fill="#333333" font-family="'MyriadPro-Regular'" font-size="10.0063">a</text>
	<text transform="matrix(1 0 0 1 289.8989 150.7476)" fill="#333333" font-family="'MyriadPro-Regular'" font-size="10.0063">s</text>
</g>
<path fill="none" stroke="#333333" stroke-linejoin="round" d="M437.847,633.478l26.872,16.355l-26.872,16.355l-26.872-16.355
	L437.847,633.478L437.847,633.478z"/>
<g>
	<text transform="matrix(1 0 0 1 424.3896 653.689)" fill="#333333" font-family="'MyriadPro-Regular'" font-size="10.0063">       </text>
	<text transform="matrix(1 0 0 1 424.3896 653.689)" fill="#333333" font-family="'MyriadPro-Regular'" font-size="10.0063">l</text>
	<text transform="matrix(1 0 0 1 426.6582 653.689)" fill="#333333" font-family="'MyriadPro-Regular'" font-size="10.0063">i</text>
	<text transform="matrix(1 0 0 1 428.8408 653.689)" fill="#333333" font-family="'MyriadPro-Regular'" font-size="10.0063">n</text>
	<text transform="matrix(1 0 0 1 434.2266 653.689)" fill="#333333" font-family="'MyriadPro-Regular'" font-size="10.0063">k</text>
	<text transform="matrix(1 0 0 1 439.1582 653.689)" fill="#333333" font-family="'MyriadPro-Regular'" font-size="10.0063">s</text>
	<text transform="matrix(1 0 0 1 443.3535 653.689)" fill="#333333" font-family="'MyriadPro-Regular'" font-size="10.0063">T</text>
	<text transform="matrix(1 0 0 1 447.8037 653.689)" fill="#333333" font-family="'MyriadPro-Regular'" font-size="10.0063">o</text>
</g>
<g>
	<path id="Drawing_90_0" fill="none" stroke="#808080" stroke-linejoin="round" d="M212.23,147.231h24.066v0.142h23.726"/>
</g>
<g>
	<path id="Drawing_91_0" fill="none" stroke="#808080" stroke-linejoin="round" d="M332.149,612.438h106.009l-0.312,20.493"/>
</g>
<g>
	<path id="Drawing_92_0" fill="none" stroke="#808080" stroke-linejoin="round" d="M437.847,666.642v30.398"/>
</g>
<path fill="#FFFFFF" d="M241.739,152.192h-5.754V141.76h11.48v10.432H241.739z"/>
<path fill="none" stroke="#FFFFFF" stroke-linejoin="round" d="M241.739,152.192h-5.754V141.76h11.48v10.432H241.739z"/>
<g>
	<text transform="matrix(1 0 0 1 238.3218 151.4272)" fill="#666666" font-family="'MyriadPro-Regular'" font-size="13.011">1</text>
</g>
<g id="Drawing_94">
	<path fill="#FFFFFF" d="M436.553,687.663h-6.889v-13.068h13.776v13.068H436.553z"/>
	<path fill="none" stroke="#FFFFFF" stroke-linejoin="round" d="M436.553,687.663h-6.889v-13.068h13.776v13.068H436.553z"/>
	<g>
		<text transform="matrix(1 0 0 1 434.2578 685.5649)" fill="#666666" font-family="'MyriadPro-Regular'" font-size="13.011">1</text>
	</g>
</g>
<g id="Drawing_95">
	<path fill="#FFFFFF" d="M353.466,617.417h-12.188v-10.432h24.378v10.432H353.466z"/>
	<path fill="none" stroke="#FFFFFF" stroke-linejoin="round" d="M353.466,617.417h-12.188v-10.432h24.378v10.432H353.466z"/>
	<g>
		<text transform="matrix(1 0 0 1 345.3018 616.6519)" fill="#666666" font-family="'MyriadPro-Regular'" font-size="13.011">0</text>
	</g>
	<g>
		<text transform="matrix(1 0 0 1 352.3887 616.6519)" fill="#666666" font-family="'MyriadPro-Regular'" font-size="10.0063">:</text>
		<text transform="matrix(1 0 0 1 354.9111 616.6519)" fill="#666666" font-family="'MyriadPro-Regular'" font-size="10.0063">N</text>
	</g>
</g>
<g id="Drawing_96">
	<path fill="#FFFFFF" d="M330.576,396.397h-6.491v-13.975h12.982v13.975H330.576z"/>
	<path fill="none" stroke="#FFFFFF" stroke-linejoin="round" d="M330.576,396.397h-6.491v-13.975h12.982v13.975H330.576z"/>
	<g>
		<text transform="matrix(1 0 0 1 328.2803 393.8472)" fill="#808080" font-family="'MyriadPro-Regular'" font-size="13.011">1</text>
	</g>
</g>
<g>
	<path id="Drawing_105_0" fill="none" stroke="#666666" stroke-linejoin="round" d="M313.653,147.373l100.29-0.624"/>
</g>
<g id="Drawing_106">
	<path fill="#FFFFFF" d="M339.278,152.221h-12.245v-10.46h24.463v10.46H339.278z"/>
	<path fill="none" stroke="#FFFFFF" stroke-linejoin="round" d="M339.278,152.221h-12.245v-10.46h24.463v10.46H339.278z"/>
	<g>
		<text transform="matrix(1 0 0 1 331.0869 151.4272)" fill="#666666" font-family="'MyriadPro-Regular'" font-size="13.011">0</text>
	</g>
	<g>
		<text transform="matrix(1 0 0 1 338.1729 151.4272)" fill="#666666" font-family="'MyriadPro-Regular'" font-size="10.0063">:</text>
		<text transform="matrix(1 0 0 1 340.6963 151.4272)" fill="#666666" font-family="'MyriadPro-Regular'" font-size="10.0063">N</text>
	</g>
</g>
<g>
	<g>
		<text transform="matrix(1 0 0 1 262.7598 616.9917)" fill="#1C1C1C" font-family="'MyriadPro-Regular'" font-size="10.0063">       </text>
		<text transform="matrix(1 0 0 1 262.7598 616.9917)" fill="#1C1C1C" font-family="'MyriadPro-Regular'" font-size="10.0063">N</text>
		<text transform="matrix(1 0 0 1 269.4775 616.9917)" fill="#1C1C1C" font-family="'MyriadPro-Regular'" font-size="10.0063">o</text>
		<text transform="matrix(1 0 0 1 275.0059 616.9917)" fill="#1C1C1C" font-family="'MyriadPro-Regular'" font-size="10.0063">t</text>
		<text transform="matrix(1 0 0 1 278.6055 616.9917)" fill="#1C1C1C" font-family="'MyriadPro-Regular'" font-size="10.0063">i</text>
		<text transform="matrix(1 0 0 1 280.7598 616.9917)" fill="#1C1C1C" font-family="'MyriadPro-Regular'" font-size="10.0063">f</text>
		<text transform="matrix(1 0 0 1 284.1338 616.9917)" fill="#1C1C1C" font-family="'MyriadPro-Regular'" font-size="10.0063">i</text>
		<text transform="matrix(1 0 0 1 286.2881 616.9917)" fill="#1C1C1C" font-family="'MyriadPro-Regular'" font-size="10.0063">c</text>
		<text transform="matrix(1 0 0 1 290.709 616.9917)" fill="#1C1C1C" font-family="'MyriadPro-Regular'" font-size="10.0063">a</text>
		<text transform="matrix(1 0 0 1 295.6426 616.9917)" fill="#1C1C1C" font-family="'MyriadPro-Regular'" font-size="10.0063">t</text>
		<text transform="matrix(1 0 0 1 299.2412 616.9917)" fill="#1C1C1C" font-family="'MyriadPro-Regular'" font-size="10.0063">i</text>
		<text transform="matrix(1 0 0 1 301.3965 616.9917)" fill="#1C1C1C" font-family="'MyriadPro-Regular'" font-size="10.0063">o</text>
		<text transform="matrix(1 0 0 1 306.9248 616.9917)" fill="#1C1C1C" font-family="'MyriadPro-Regular'" font-size="10.0063">n</text>
	</g>
	<path fill="none" stroke="#1C1C1C" stroke-linejoin="round" d="M248.983,595.901c-2.946,0-5.896,2.947-5.896,5.896v23.584
		c0,2.948,2.948,5.924,5.896,5.924h77.074c2.948,0,5.925-2.977,5.925-5.924v-23.584c0-2.948-2.977-5.896-5.925-5.896H248.983z"/>
	<text transform="matrix(1 0 0 1 188.2666 568.603)" font-family="'MyriadPro-Regular'" font-size="10.0063">       </text>
	<text transform="matrix(1 0 0 1 188.2666 568.603)" font-family="'MyriadPro-Regular'" font-size="10.0063">n</text>
	<text transform="matrix(1 0 0 1 193.6807 568.603)" font-family="'MyriadPro-Regular'" font-size="10.0063">o</text>
	<text transform="matrix(1 0 0 1 199.1787 568.603)" font-family="'MyriadPro-Regular'" font-size="10.0063">t</text>
	<text transform="matrix(1 0 0 1 202.7783 568.603)" font-family="'MyriadPro-Regular'" font-size="10.0063">i</text>
	<text transform="matrix(1 0 0 1 204.9326 568.603)" font-family="'MyriadPro-Regular'" font-size="10.0063">f</text>
	<text transform="matrix(1 0 0 1 208.3066 568.603)" font-family="'MyriadPro-Regular'" font-size="10.0063">i</text>
	<text transform="matrix(1 0 0 1 210.4619 568.603)" font-family="'MyriadPro-Regular'" font-size="10.0063">c</text>
	<text transform="matrix(1 0 0 1 214.9111 568.603)" font-family="'MyriadPro-Regular'" font-size="10.0063">a</text>
	<text transform="matrix(1 0 0 1 219.8145 568.603)" font-family="'MyriadPro-Regular'" font-size="10.0063">t</text>
	<text transform="matrix(1 0 0 1 223.415 568.603)" font-family="'MyriadPro-Regular'" font-size="10.0063">i</text>
	<text transform="matrix(1 0 0 1 225.5977 568.603)" font-family="'MyriadPro-Regular'" font-size="10.0063">o</text>
	<text transform="matrix(1 0 0 1 231.0977 568.603)" font-family="'MyriadPro-Regular'" font-size="10.0063">n</text>
	<text transform="matrix(1 0 0 1 236.5117 568.603)" font-family="'MyriadPro-Regular'" font-size="10.0063">_</text>
	<text transform="matrix(1 0 0 1 241.5566 568.603)" font-family="'MyriadPro-Regular'" font-size="10.0063">i</text>
	<text transform="matrix(1 0 0 1 243.7109 568.603)" font-family="'MyriadPro-Regular'" font-size="10.0063">d</text>
	<path d="M188.266,569.453h59.981v0.538h-59.981V569.453z"/>
	<g>
		<text transform="matrix(1 0 0 1 326.6729 569.2554)" font-family="'MyriadPro-Regular'" font-size="10.0063">       </text>
		<text transform="matrix(1 0 0 1 326.6729 569.2554)" font-family="'MyriadPro-Regular'" font-size="10.0063">t</text>
		<text transform="matrix(1 0 0 1 330.2725 569.2554)" font-family="'MyriadPro-Regular'" font-size="10.0063">i</text>
		<text transform="matrix(1 0 0 1 332.4268 569.2554)" font-family="'MyriadPro-Regular'" font-size="10.0063">m</text>
		<text transform="matrix(1 0 0 1 340.5898 569.2554)" font-family="'MyriadPro-Regular'" font-size="10.0063">e</text>
		<text transform="matrix(1 0 0 1 345.749 569.2554)" font-family="'MyriadPro-Regular'" font-size="10.0063">s</text>
		<text transform="matrix(1 0 0 1 349.9443 569.2554)" font-family="'MyriadPro-Regular'" font-size="10.0063">t</text>
		<text transform="matrix(1 0 0 1 353.5439 569.2554)" font-family="'MyriadPro-Regular'" font-size="10.0063">a</text>
		<text transform="matrix(1 0 0 1 358.4766 569.2554)" font-family="'MyriadPro-Regular'" font-size="10.0063">m</text>
		<text transform="matrix(1 0 0 1 366.6406 569.2554)" font-family="'MyriadPro-Regular'" font-size="10.0063">p</text>
	</g>
	<path fill="#FFFFFF" d="M318.461,551.963c2.552,0,4.507,1.701,4.507,3.939c0,2.239-1.955,3.94-4.507,3.94
		c-2.551,0-4.479-1.701-4.479-3.94C313.981,553.665,315.91,551.963,318.461,551.963z"/>
	<path id="Drawing_97_0" fill="none" stroke="#1C1C1C" stroke-linejoin="round" d="M318.461,549.963
		c2.552,0,4.507,1.701,4.507,3.939c0,2.239-1.955,3.94-4.507,3.94c-2.551,0-4.479-1.701-4.479-3.94
		C313.981,551.665,315.91,549.963,318.461,549.963z"/>
	<g>
		<path id="Drawing_98_0" fill="none" stroke="#000000" stroke-linejoin="round" d="M318.518,557.843l-0.027,38.058"/>
	</g>
	<path fill="#FFFFFF" d="M274.212,571.862c2.523,0,4.479,1.701,4.479,3.939c0,2.239-1.955,3.939-4.479,3.939
		c-2.522,0-4.45-1.7-4.45-3.939C269.762,573.563,271.689,571.862,274.212,571.862z"/>
	<path id="Drawing_99_0" fill="none" stroke="#1C1C1C" stroke-linejoin="round" d="M274.212,571.862
		c2.523,0,4.479,1.701,4.479,3.939c0,2.239-1.955,3.939-4.479,3.939c-2.522,0-4.45-1.7-4.45-3.939
		C269.762,573.563,271.689,571.862,274.212,571.862z"/>
	<g>
		<path id="Drawing_100_0" fill="none" stroke="#000000" stroke-linejoin="round" d="M274.269,579.743l0.256,16.186"/>
	</g>
	<path fill="#1C1C1C" d="M246.546,571.805c2.552,0,4.507,1.701,4.507,3.94s-1.955,3.94-4.507,3.94c-2.551,0-4.507-1.701-4.507-3.94
		S243.995,571.805,246.546,571.805z"/>
	<path id="Drawing_101_0" fill="none" stroke="#1C1C1C" stroke-linejoin="round" d="M246.546,571.805
		c2.552,0,4.507,1.701,4.507,3.94s-1.955,3.94-4.507,3.94c-2.551,0-4.507-1.701-4.507-3.94S243.995,571.805,246.546,571.805z"/>
	<g>
		<path id="Drawing_102_0" fill="none" stroke="#000000" stroke-linejoin="round" d="M246.546,579.686l0.028,16.895"/>
	</g>
	<g>
		<path id="Drawing_103_0" fill="none" stroke="#000000" stroke-linejoin="round" d="M324.669,579.487v16.414"/>
	</g>
	<path fill="#FFFFFF" d="M324.612,571.608c2.551,0,4.507,1.7,4.507,3.939c0,2.24-1.956,3.939-4.507,3.939
		c-2.552,0-4.479-1.7-4.479-3.939C320.134,573.307,322.062,571.608,324.612,571.608z"/>
	<path id="Drawing_104_0" fill="none" stroke="#1C1C1C" stroke-linejoin="round" d="M324.612,571.608c2.551,0,4.507,1.7,4.507,3.939
		c0,2.24-1.956,3.939-4.507,3.939c-2.552,0-4.479-1.7-4.479-3.939C320.134,573.307,322.062,571.608,324.612,571.608z"/>
	<g>
		<text transform="matrix(1 0 0 1 264.4326 569.3394)" font-family="'MyriadPro-Regular'" font-size="10.0063">       </text>
		<text transform="matrix(1 0 0 1 264.4326 569.3394)" font-family="'MyriadPro-Regular'" font-size="10.0063">d</text>
		<text transform="matrix(1 0 0 1 269.96 569.3394)" font-family="'MyriadPro-Regular'" font-size="10.0063">e</text>
		<text transform="matrix(1 0 0 1 275.1201 569.3394)" font-family="'MyriadPro-Regular'" font-size="10.0063">s</text>
		<text transform="matrix(1 0 0 1 279.3154 569.3394)" font-family="'MyriadPro-Regular'" font-size="10.0063">c</text>
		<text transform="matrix(1 0 0 1 283.7646 569.3394)" font-family="'MyriadPro-Regular'" font-size="10.0063">r</text>
		<text transform="matrix(1 0 0 1 287.2236 569.3394)" font-family="'MyriadPro-Regular'" font-size="10.0063">i</text>
		<text transform="matrix(1 0 0 1 289.4063 569.3394)" font-family="'MyriadPro-Regular'" font-size="10.0063">p</text>
		<text transform="matrix(1 0 0 1 294.9043 569.3394)" font-family="'MyriadPro-Regular'" font-size="10.0063">t</text>
		<text transform="matrix(1 0 0 1 298.5059 569.3394)" font-family="'MyriadPro-Regular'" font-size="10.0063">i</text>
		<text transform="matrix(1 0 0 1 300.6592 569.3394)" font-family="'MyriadPro-Regular'" font-size="10.0063">o</text>
		<text transform="matrix(1 0 0 1 306.1865 569.3394)" font-family="'MyriadPro-Regular'" font-size="10.0063">n</text>
	</g>
	<text transform="matrix(1 0 0 1 325.626 556.9038)" font-family="'MyriadPro-Regular'" font-size="10">is_outcome</text>
</g>
<g>
	<text transform="matrix(1 0 0 1 66.0068 758.9448)" font-family="'MyriadPro-Regular'" font-size="10.0063">       </text>
	<text transform="matrix(1 0 0 1 66.0068 758.9448)" font-family="'MyriadPro-Regular'" font-size="10.0063">u</text>
	<text transform="matrix(1 0 0 1 71.2793 758.9448)" font-family="'MyriadPro-Regular'" font-size="10.0063">s</text>
	<text transform="matrix(1 0 0 1 75.4746 758.9448)" font-family="'MyriadPro-Regular'" font-size="10.0063">e</text>
	<text transform="matrix(1 0 0 1 80.6338 758.9448)" font-family="'MyriadPro-Regular'" font-size="10.0063">r</text>
	<text transform="matrix(1 0 0 1 84.1206 758.9448)" font-family="'MyriadPro-Regular'" font-size="10.0063">n</text>
	<text transform="matrix(1 0 0 1 89.5342 758.9448)" font-family="'MyriadPro-Regular'" font-size="10.0063">a</text>
	<text transform="matrix(1 0 0 1 94.4385 758.9448)" font-family="'MyriadPro-Regular'" font-size="10.0063">m</text>
	<text transform="matrix(1 0 0 1 102.6021 758.9448)" font-family="'MyriadPro-Regular'" font-size="10.0063">e</text>
</g>
<g>
	<text transform="matrix(1 0 0 1 35.9019 729.4448)" font-family="'MyriadPro-Regular'" font-size="10.0063">       </text>
	<text transform="matrix(1 0 0 1 35.9019 729.4448)" font-family="'MyriadPro-Regular'" font-size="10.0063">e</text>
	<text transform="matrix(1 0 0 1 41.061 729.4448)" font-family="'MyriadPro-Regular'" font-size="10.0063">m</text>
	<text transform="matrix(1 0 0 1 49.2246 729.4448)" font-family="'MyriadPro-Regular'" font-size="10.0063">a</text>
	<text transform="matrix(1 0 0 1 54.1289 729.4448)" font-family="'MyriadPro-Regular'" font-size="10.0063">i</text>
	<text transform="matrix(1 0 0 1 56.3115 729.4448)" font-family="'MyriadPro-Regular'" font-size="10.0063">l</text>
</g>
<text transform="matrix(1 0 0 1 34.9019 717.1206)" font-family="'MyriadPro-Regular'" font-size="10">credit</text>
<g>
	<path fill="none" stroke="#1C1C1C" stroke-linejoin="round" d="M401.021,697.041c-2.948,0-5.867,2.92-5.867,5.868v23.585
		c0,2.949,2.919,5.896,5.867,5.896h77.188c2.948,0,5.896-2.947,5.896-5.896v-23.585c0-2.948-2.948-5.868-5.896-5.868H401.021z"/>
	<path id="Drawing_2_0" fill="none" stroke="#1C1C1C" stroke-linejoin="round" d="M506.753,711.838c2.552,0,4.507,1.7,4.507,3.94
		c0,2.238-1.955,3.939-4.507,3.939c-2.551,0-4.507-1.701-4.507-3.939C502.246,713.539,504.202,711.838,506.753,711.838z"/>
	<g>
		<text transform="matrix(1 0 0 1 516.0869 719.1685)" font-family="'MyriadPro-Regular'" font-size="10.0063">       </text>
		<text transform="matrix(1 0 0 1 516.0869 719.1685)" font-family="'MyriadPro-Regular'" font-size="10.0063">e</text>
		<text transform="matrix(1 0 0 1 521.2451 719.1685)" font-family="'MyriadPro-Regular'" font-size="10.0063">n</text>
		<text transform="matrix(1 0 0 1 526.6602 719.1685)" font-family="'MyriadPro-Regular'" font-size="10.0063">d</text>
		<text transform="matrix(1 0 0 1 532.1602 719.1685)" font-family="'MyriadPro-Regular'" font-size="10.0063">_</text>
		<text transform="matrix(1 0 0 1 537.2041 719.1685)" font-family="'MyriadPro-Regular'" font-size="10.0063">t</text>
		<text transform="matrix(1 0 0 1 540.8047 719.1685)" font-family="'MyriadPro-Regular'" font-size="10.0063">i</text>
		<text transform="matrix(1 0 0 1 542.959 719.1685)" font-family="'MyriadPro-Regular'" font-size="10.0063">m</text>
		<text transform="matrix(1 0 0 1 551.123 719.1685)" font-family="'MyriadPro-Regular'" font-size="10.0063">e</text>
	</g>
	<path id="Drawing_4_0" fill="#231F20" stroke="#1C1C1C" stroke-linejoin="round" d="M506.187,697.296
		c2.551,0,4.507,1.701,4.507,3.939c0,2.24-1.956,3.94-4.507,3.94c-2.553,0-4.509-1.7-4.509-3.94
		C501.679,698.998,503.635,697.296,506.187,697.296z"/>
	<path fill="#FFFFFF" d="M476.102,741.744c2.578,0,4.563,1.701,4.563,3.912s-1.984,3.912-4.563,3.912
		c-2.58,0-4.564-1.701-4.564-3.912S473.521,741.744,476.102,741.744z"/>
	<path id="Drawing_6_0" fill="none" stroke="#1C1C1C" stroke-linejoin="round" d="M476.102,741.744c2.578,0,4.563,1.701,4.563,3.912
		s-1.984,3.912-4.563,3.912c-2.58,0-4.564-1.701-4.564-3.912S473.521,741.744,476.102,741.744z"/>
	<path id="Drawing_8_0" fill="none" stroke="#1C1C1C" stroke-linejoin="round" d="M506.753,725.955c2.552,0,4.507,1.617,4.507,3.742
		c0,2.127-1.955,3.742-4.507,3.742c-2.551,0-4.507-1.615-4.507-3.742C502.246,727.572,504.202,725.955,506.753,725.955z"/>
	<g>
		<path id="Drawing_9_0" fill="none" stroke="#000000" stroke-linejoin="round" d="M501.679,701.238l-18.255-0.058"/>
	</g>
	<g>
		<path id="Drawing_10_0" fill="none" stroke="#000000" stroke-linejoin="round" d="M502.246,715.779h-18.283"/>
	</g>
	<g>
		<path id="Drawing_11_0" fill="none" stroke="#000000" stroke-linejoin="round" d="M502.246,729.697h-18.142"/>
	</g>
	<g>
		<path id="Drawing_12_0" fill="none" stroke="#000000" stroke-linejoin="round" d="M476.102,741.744l-0.114-9.439"/>
	</g>
	<g>
		<text transform="matrix(1 0 0 1 473.2305 761.4097)" font-family="'MyriadPro-Regular'" font-size="10.0063">       </text>
		<text transform="matrix(1 0 0 1 473.2305 761.4097)" font-family="'MyriadPro-Regular'" font-size="10.0063">d</text>
		<text transform="matrix(1 0 0 1 478.7568 761.4097)" font-family="'MyriadPro-Regular'" font-size="10.0063">e</text>
		<text transform="matrix(1 0 0 1 483.916 761.4097)" font-family="'MyriadPro-Regular'" font-size="10.0063">s</text>
		<text transform="matrix(1 0 0 1 488.1113 761.4097)" font-family="'MyriadPro-Regular'" font-size="10.0063">c</text>
		<text transform="matrix(1 0 0 1 492.5625 761.4097)" font-family="'MyriadPro-Regular'" font-size="10.0063">r</text>
		<text transform="matrix(1 0 0 1 496.0215 761.4097)" font-family="'MyriadPro-Regular'" font-size="10.0063">i</text>
		<text transform="matrix(1 0 0 1 498.2031 761.4097)" font-family="'MyriadPro-Regular'" font-size="10.0063">p</text>
		<text transform="matrix(1 0 0 1 503.7021 761.4097)" font-family="'MyriadPro-Regular'" font-size="10.0063">t</text>
		<text transform="matrix(1 0 0 1 507.3018 761.4097)" font-family="'MyriadPro-Regular'" font-size="10.0063">i</text>
		<text transform="matrix(1 0 0 1 509.4561 761.4097)" font-family="'MyriadPro-Regular'" font-size="10.0063">o</text>
		<text transform="matrix(1 0 0 1 514.9854 761.4097)" font-family="'MyriadPro-Regular'" font-size="10.0063">n</text>
	</g>
	<g>
		<path fill="#FFFFFF" d="M456.354,741.744c2.552,0,4.507,1.701,4.507,3.912s-1.955,3.912-4.507,3.912s-4.508-1.701-4.508-3.912
			C451.848,743.445,453.804,741.744,456.354,741.744z"/>
		<path id="Drawing_15_0" fill="none" stroke="#1C1C1C" stroke-linejoin="round" d="M456.354,741.744
			c2.552,0,4.507,1.701,4.507,3.912s-1.955,3.912-4.507,3.912s-4.508-1.701-4.508-3.912
			C451.848,743.445,453.804,741.744,456.354,741.744z"/>
	</g>
	<g>
		<path id="Drawing_16_0" fill="none" stroke="#000000" stroke-linejoin="round" d="M456.354,741.744l0.027-9.439"/>
	</g>
	<path fill="#FFFFFF" d="M415.002,741.744c2.551,0,4.507,1.701,4.507,3.912s-1.956,3.912-4.507,3.912s-4.507-1.701-4.507-3.912
		S412.451,741.744,415.002,741.744z"/>
	<path id="Drawing_56_0" fill="none" stroke="#1C1C1C" stroke-linejoin="round" d="M415.002,741.744
		c2.551,0,4.507,1.701,4.507,3.912s-1.956,3.912-4.507,3.912s-4.507-1.701-4.507-3.912S412.451,741.744,415.002,741.744z"/>
	<g>
		<path id="Drawing_57_0" fill="none" stroke="#000000" stroke-linejoin="round" d="M415.002,741.744l-0.142-9.383"/>
	</g>
	<text transform="matrix(1 0 0 1 380.7832 761.3062)" font-family="'MyriadPro-Regular'" font-size="10">is_active</text>
	<text transform="matrix(1 0 0 1 424.0498 717.8491)" font-family="'MyriadPro-Regular'" font-size="10">Auction</text>
	<text transform="matrix(1 0 0 1 446.0508 761.8491)" font-family="'MyriadPro-Regular'" font-size="10">name</text>
	<text transform="matrix(1 0 0 1 515.501 732.3892)" font-family="'MyriadPro-Regular'" font-size="10">winning_bid_id</text>
	<text transform="matrix(0.9998 -0.0175 0.0175 0.9998 516.208 704.2231)" enable-background="new    "><tspan x="0" y="0" font-family="'MyriadPro-Regular'" font-size="10" text-decoration=" underline">a</tspan><tspan x="4.993" y="0.094" font-family="'MyriadPro-Regular'" font-size="10" text-decoration=" underline">u</tspan><tspan x="10.676" y="0.183" font-family="'MyriadPro-Regular'" font-size="10" text-decoration=" underline">c</tspan><tspan x="15.329" y="0.255" font-family="'MyriadPro-Regular'" font-size="10" text-decoration=" underline">t</tspan><tspan x="18.812" y="0.307" font-family="'MyriadPro-Regular'" font-size="10" text-decoration=" underline">i</tspan><tspan x="21.326" y="0.378" font-family="'MyriadPro-Regular'" font-size="10" text-decoration=" underline">o</tspan><tspan x="26.988" y="0.478" font-family="'MyriadPro-Regular'" font-size="10" text-decoration=" underline">n</tspan><tspan x="32.712" y="0.573" font-family="'MyriadPro-Regular'" font-size="10" text-decoration=" underline">_</tspan><tspan x="37.885" y="0.64" font-family="'MyriadPro-Regular'" font-size="10" text-decoration=" underline">i</tspan><tspan x="40.398" y="0.713" font-family="'MyriadPro-Regular'" font-size="10" text-decoration=" underline">d</tspan></text>
</g>
<text transform="matrix(1 0 0 1 120.4722 333.4453)" font-family="'MyriadPro-Regular'" font-size="10">bid_id</text>
<text transform="matrix(1 0 0 1 168.1377 379.1118)" font-family="'MyriadPro-Regular'" font-size="10">Bid</text>
<path fill="none" stroke="#808080" stroke-linejoin="round" d="M345.749,732.277"/>
<path fill="none" stroke="#808080" stroke-linejoin="round" d="M345.749,732.277"/>
<path id="Drawing_2_0_1_" fill="none" stroke="#1C1C1C" stroke-linejoin="round" d="M71.861,714.181
	c0,2.238-1.956,3.939-4.507,3.939c-2.552,0-4.507-1.701-4.507-3.939c0-2.24,1.955-3.94,4.507-3.94
	C69.905,710.241,71.861,711.941,71.861,714.181z"/>
<path id="Drawing_8_0_1_" fill="none" stroke="#1C1C1C" stroke-linejoin="round" d="M71.861,726.099
	c0,2.127-1.956,3.742-4.507,3.742c-2.552,0-4.507-1.615-4.507-3.742c0-2.125,1.955-3.742,4.507-3.742
	C69.905,722.357,71.861,723.974,71.861,726.099z"/>
<g>
	<path id="Drawing_10_0_1_" fill="none" stroke="#000000" stroke-linejoin="round" d="M90.145,714.181H71.861"/>
</g>
<g>
	<path id="Drawing_11_0_1_" fill="none" stroke="#000000" stroke-linejoin="round" d="M90.003,726.099H71.861"/>
</g>
<g>
	<text transform="matrix(1 0 0 1 124.3125 718.4292)" fill="#1C1C1C" font-family="'MyriadPro-Regular'" font-size="10.0063">       </text>
	<text transform="matrix(1 0 0 1 124.3125 718.4292)" fill="#1C1C1C" font-family="'MyriadPro-Regular'" font-size="10.0063">U</text>
	<text transform="matrix(1 0 0 1 131.144 718.4292)" fill="#1C1C1C" font-family="'MyriadPro-Regular'" font-size="10.0063">s</text>
	<text transform="matrix(1 0 0 1 135.3394 718.4292)" fill="#1C1C1C" font-family="'MyriadPro-Regular'" font-size="10.0063">e</text>
	<text transform="matrix(1 0 0 1 140.5269 718.4292)" fill="#1C1C1C" font-family="'MyriadPro-Regular'" font-size="10.0063">r</text>
	<path fill="none" stroke="#1C1C1C" stroke-linejoin="round" d="M95.956,697.097c-2.948,0-5.867,2.92-5.867,5.867v23.584
		c0,2.948,2.919,5.896,5.867,5.896H173.2c2.92,0,5.868-2.948,5.868-5.896v-23.584c0-2.949-2.948-5.869-5.868-5.869H95.956V697.097z"
		/>
	<g>
		<text transform="matrix(1 0 0 1 27.9932 702.9458)" font-family="'MyriadPro-Regular'" font-size="10.0063">       </text>
		<text transform="matrix(1 0 0 1 27.9932 702.9458)" font-family="'MyriadPro-Regular'" font-size="10.0063">u</text>
		<text transform="matrix(1 0 0 1 33.2656 702.9458)" font-family="'MyriadPro-Regular'" font-size="10.0063">s</text>
		<text transform="matrix(1 0 0 1 37.4609 702.9458)" font-family="'MyriadPro-Regular'" font-size="10.0063">e</text>
		<text transform="matrix(1 0 0 1 42.6201 702.9458)" font-family="'MyriadPro-Regular'" font-size="10.0063">r</text>
		<text transform="matrix(1 0 0 1 46.1064 702.9458)" font-family="'MyriadPro-Regular'" font-size="10.0063">_</text>
		<text transform="matrix(1 0 0 1 51.1523 702.9458)" font-family="'MyriadPro-Regular'" font-size="10.0063">i</text>
		<text transform="matrix(1 0 0 1 53.3066 702.9458)" font-family="'MyriadPro-Regular'" font-size="10.0063">d</text>
		<path d="M27.993,703.795h30.728v0.539H27.993V703.795z"/>
	</g>
	<g>
		<text transform="matrix(1 0 0 1 158.6694 759.9448)" font-family="'MyriadPro-Regular'" font-size="10">       </text>
		<text transform="matrix(1 0 0 1 158.6694 759.9448)" font-family="'MyriadPro-Regular'" font-size="10">p</text>
		<text transform="matrix(1 0 0 1 164.1968 759.9448)" font-family="'MyriadPro-Regular'" font-size="10">a</text>
		<text transform="matrix(1 0 0 1 169.1011 759.9448)" font-family="'MyriadPro-Regular'" font-size="10">s</text>
		<text transform="matrix(1 0 0 1 173.2964 759.9448)" font-family="'MyriadPro-Regular'" font-size="10">s</text>
		<text transform="matrix(1 0 0 1 177.52 759.9448)" font-family="'MyriadPro-Regular'" font-size="10">w</text>
		<text transform="matrix(1 0 0 1 185.2017 759.9448)" font-family="'MyriadPro-Regular'" font-size="10">o</text>
		<text transform="matrix(1 0 0 1 190.7012 759.9448)" font-family="'MyriadPro-Regular'" font-size="10">r</text>
		<text transform="matrix(1 0 0 1 194.1875 759.9448)" font-family="'MyriadPro-Regular'" font-size="10">d</text>
	</g>
	<path id="Drawing_4_0_1_" fill="#231F20" stroke="#1C1C1C" stroke-linejoin="round" d="M72.43,700.638
		c0,2.24-1.956,3.94-4.509,3.94c-2.551,0-4.507-1.7-4.507-3.94c0-2.238,1.956-3.939,4.507-3.939
		C70.473,696.699,72.429,698.4,72.43,700.638z"/>
	<g>
		<path id="Drawing_9_0_1_" fill="none" stroke="#000000" stroke-linejoin="round" d="M90.684,700.583l-18.255,0.058"/>
	</g>
	<path fill="#FFFFFF" d="M104.724,742.418c2.578,0,4.563,1.701,4.563,3.912s-1.984,3.912-4.563,3.912
		c-2.58,0-4.564-1.701-4.564-3.912S102.144,742.418,104.724,742.418z"/>
	<path id="Drawing_6_0_1_" fill="none" stroke="#1C1C1C" stroke-linejoin="round" d="M104.724,742.418
		c2.578,0,4.563,1.701,4.563,3.912s-1.984,3.912-4.563,3.912c-2.58,0-4.564-1.701-4.564-3.912S102.144,742.418,104.724,742.418z"/>
	<g>
		<path id="Drawing_12_0_1_" fill="none" stroke="#000000" stroke-linejoin="round" d="M104.724,742.418l-0.114-9.439"/>
	</g>
	<path fill="#FFFFFF" d="M161.376,742.043c2.578,0,4.563,1.701,4.563,3.912s-1.984,3.912-4.563,3.912
		c-2.58,0-4.564-1.701-4.564-3.912S158.796,742.043,161.376,742.043z"/>
	<path id="Drawing_6_0_2_" fill="none" stroke="#1C1C1C" stroke-linejoin="round" d="M161.376,742.043
		c2.578,0,4.563,1.701,4.563,3.912s-1.984,3.912-4.563,3.912c-2.58,0-4.564-1.701-4.564-3.912S158.796,742.043,161.376,742.043z"/>
	<g>
		<path id="Drawing_12_0_2_" fill="none" stroke="#000000" stroke-linejoin="round" d="M161.376,742.043l-0.114-9.439"/>
	</g>
</g>
<path fill="none" stroke="#333333" stroke-linejoin="round" d="M135.078,633.478l26.872,16.355l-26.872,16.355l-26.872-16.355
	L135.078,633.478L135.078,633.478z"/>
<g>
	<path id="Drawing_91_0_1_" fill="none" stroke="#808080" stroke-linejoin="round" d="M243.088,613.602l-108.01-0.401v20.277"/>
</g>
<g>
	<path id="Drawing_92_0_1_" fill="none" stroke="#808080" stroke-linejoin="round" d="M135.078,666.189v30.398"/>
</g>
<g id="Drawing_94_1_">
	<path fill="#FFFFFF" d="M134.079,687.663h-6.889v-13.068h13.776v13.068H134.079z"/>
	<path fill="none" stroke="#FFFFFF" stroke-linejoin="round" d="M134.079,687.663h-6.889v-13.068h13.776v13.068H134.079z"/>
	<g>
		<text transform="matrix(1 0 0 1 131.7837 685.5649)" fill="#666666" font-family="'MyriadPro-Regular'" font-size="13.011">1</text>
	</g>
</g>
<g id="Drawing_95_1_">
	<path fill="#FFFFFF" d="M219.814,617.818h-12.188v-10.432h24.378v10.432H219.814z"/>
	<path fill="none" stroke="#FFFFFF" stroke-linejoin="round" d="M219.814,617.818h-12.188v-10.432h24.378v10.432H219.814z"/>
	<g>
		<text transform="matrix(1 0 0 1 211.6499 617.0532)" fill="#666666" font-family="'MyriadPro-Regular'" font-size="13.011">0</text>
	</g>
	<g>
		<text transform="matrix(1 0 0 1 218.7368 617.0532)" fill="#666666" font-family="'MyriadPro-Regular'" font-size="10.0063">:</text>
		<text transform="matrix(1 0 0 1 221.2593 617.0532)" fill="#666666" font-family="'MyriadPro-Regular'" font-size="10.0063">N</text>
	</g>
</g>
<text transform="matrix(0.9998 -0.0175 0.0175 0.9998 128.0967 652.9927)"><tspan x="0" y="0" fill="#333333" font-family="'MyriadPro-Regular'" font-size="10">h</tspan><tspan x="5.723" y="0.093" fill="#333333" font-family="'MyriadPro-Regular'" font-size="10">a</tspan><tspan x="10.716" y="0.173" fill="#333333" font-family="'MyriadPro-Regular'" font-size="10">s</tspan></text>
<g>
	<path id="Drawing_92_0_2_" fill="none" stroke="#808080" stroke-linejoin="round" d="M395.578,714.77H179.493"/>
</g>
<path fill="#FFFFFF" stroke="#333333" stroke-linejoin="round" d="M290.708,698.423l26.873,16.355l-26.873,16.355l-26.871-16.355
	L290.708,698.423L290.708,698.423z"/>
<text transform="matrix(0.9998 -0.0175 0.0175 0.9998 274.1641 718.0122)"><tspan x="0" y="0" fill="#333333" font-family="'MyriadPro-Regular'" font-size="10">c</tspan><tspan x="4.653" y="0.071" fill="#333333" font-family="'MyriadPro-Regular'" font-size="10">r</tspan><tspan x="8.096" y="0.146" fill="#333333" font-family="'MyriadPro-Regular'" font-size="10">e</tspan><tspan x="13.279" y="0.235" fill="#333333" font-family="'MyriadPro-Regular'" font-size="10">a</tspan><tspan x="18.273" y="0.309" fill="#333333" font-family="'MyriadPro-Regular'" font-size="10">t</tspan><tspan x="21.755" y="0.385" fill="#333333" font-family="'MyriadPro-Regular'" font-size="10">e</tspan><tspan x="26.938" y="0.466" fill="#333333" font-family="'MyriadPro-Regular'" font-size="10">s</tspan></text>
<g id="Drawing_95_2_">
	<path fill="#FFFFFF" d="M375.844,719.931h-12.188V709.5h24.378v10.432H375.844z"/>
	<path fill="none" stroke="#FFFFFF" stroke-linejoin="round" d="M375.844,719.931h-12.188V709.5h24.378v10.432H375.844z"/>
	<g>
		<text transform="matrix(1 0 0 1 367.6797 719.1665)" fill="#666666" font-family="'MyriadPro-Regular'" font-size="13.011">0</text>
	</g>
	<g>
		<text transform="matrix(1 0 0 1 374.7666 719.1665)" fill="#666666" font-family="'MyriadPro-Regular'" font-size="10.0063">:</text>
		<text transform="matrix(1 0 0 1 377.2891 719.1665)" fill="#666666" font-family="'MyriadPro-Regular'" font-size="10.0063">N</text>
	</g>
</g>
<g id="Drawing_94_2_">
	<path fill="#FFFFFF" d="M190.179,721.313h-6.889v-13.068h13.776v13.068H190.179z"/>
	<path fill="none" stroke="#FFFFFF" stroke-linejoin="round" d="M190.179,721.313h-6.889v-13.068h13.776v13.068H190.179z"/>
	<g>
		<text transform="matrix(1 0 0 1 187.8843 719.2153)" fill="#666666" font-family="'MyriadPro-Regular'" font-size="13.011">1</text>
	</g>
</g>
<g>
	<path fill="none" stroke="#1C1C1C" stroke-linejoin="round" d="M250.596,817.597c-2.948,0-5.867,2.92-5.867,5.867v23.584
		c0,2.948,2.919,5.896,5.867,5.896h77.245c2.92,0,5.867-2.948,5.867-5.896v-23.584c0-2.949-2.947-5.869-5.867-5.869h-77.245V817.597
		z"/>
	<text transform="matrix(0.9998 -0.0175 0.0175 0.9998 283.918 838.6421)"><tspan x="0" y="0" font-family="'MyriadPro-Regular'" font-size="10">B</tspan><tspan x="5.593" y="0.07" font-family="'MyriadPro-Regular'" font-size="10">i</tspan><tspan x="8.106" y="0.143" font-family="'MyriadPro-Regular'" font-size="10">d</tspan></text>
</g>
<path fill="#FFFFFF" d="M278.086,862.874c2.578,0,4.563,1.701,4.563,3.912s-1.984,3.912-4.563,3.912
	c-2.58,0-4.564-1.701-4.564-3.912S275.506,862.874,278.086,862.874z"/>
<path id="Drawing_6_0_4_" fill="#231F20" stroke="#1C1C1C" stroke-linejoin="round" d="M278.086,862.874
	c2.578,0,4.563,1.701,4.563,3.912s-1.984,3.912-4.563,3.912c-2.58,0-4.564-1.701-4.564-3.912S275.506,862.874,278.086,862.874z"/>
<g>
	<path id="Drawing_12_0_4_" fill="none" stroke="#000000" stroke-linejoin="round" d="M278.086,862.874l-0.114-9.439"/>
</g>
<path fill="#FFFFFF" d="M300.737,862.499c2.578,0,4.563,1.701,4.563,3.912s-1.984,3.912-4.563,3.912
	c-2.58,0-4.564-1.701-4.564-3.912S298.157,862.499,300.737,862.499z"/>
<path id="Drawing_6_0_3_" fill="none" stroke="#1C1C1C" stroke-linejoin="round" d="M300.737,862.499
	c2.578,0,4.563,1.701,4.563,3.912s-1.984,3.912-4.563,3.912c-2.58,0-4.564-1.701-4.564-3.912S298.157,862.499,300.737,862.499z"/>
<g>
	<path id="Drawing_12_0_3_" fill="none" stroke="#000000" stroke-linejoin="round" d="M300.737,862.499l-0.113-9.439"/>
</g>
<text transform="matrix(0.9998 -0.0175 0.0175 0.9998 254.7959 883.4937)"><tspan x="0" y="0" font-family="'MyriadPro-Regular'" font-size="10">b</tspan><tspan x="5.863" y="0.073" font-family="'MyriadPro-Regular'" font-size="10">i</tspan><tspan x="8.376" y="0.146" font-family="'MyriadPro-Regular'" font-size="10">d</tspan><tspan x="14.189" y="0.242" font-family="'MyriadPro-Regular'" font-size="10">_</tspan><tspan x="19.362" y="0.309" font-family="'MyriadPro-Regular'" font-size="10">i</tspan><tspan x="21.876" y="0.382" font-family="'MyriadPro-Regular'" font-size="10">d</tspan></text>
<text transform="matrix(0.9998 -0.0175 0.0175 0.9998 297.2959 883.4858)"><tspan x="0" y="0" font-family="'MyriadPro-Regular'" font-size="10">a</tspan><tspan x="4.993" y="0.118" font-family="'MyriadPro-Regular'" font-size="10">m</tspan><tspan x="13.505" y="0.242" font-family="'MyriadPro-Regular'" font-size="10">o</tspan><tspan x="19.168" y="0.341" font-family="'MyriadPro-Regular'" font-size="10">u</tspan><tspan x="24.851" y="0.441" font-family="'MyriadPro-Regular'" font-size="10">n</tspan><tspan x="30.574" y="0.521" font-family="'MyriadPro-Regular'" font-size="10">t</tspan></text>
<polyline fill="none" stroke="#808080" stroke-linejoin="round" points="134.138,732.979 134.138,835.27 243.711,835.27 "/>
<polyline fill="none" stroke="#666666" stroke-miterlimit="10" points="333.427,835.27 438.114,835.27 438.158,732.979 "/>
<path fill="#FFFFFF" stroke="#333333" stroke-linejoin="round" d="M134.578,772.884l26.873,16.355l-26.873,16.355l-26.871-16.355
	L134.578,772.884L134.578,772.884z"/>
<g id="Drawing_95_3_">
	<path fill="#FFFFFF" d="M219.814,840.486h-12.188v-10.432h24.378v10.432H219.814z"/>
	<path fill="none" stroke="#FFFFFF" stroke-linejoin="round" d="M219.814,840.486h-12.188v-10.432h24.378v10.432H219.814z"/>
	<g>
		<text transform="matrix(1 0 0 1 211.6499 839.7212)" fill="#666666" font-family="'MyriadPro-Regular'" font-size="13.011">0</text>
	</g>
	<g>
		<text transform="matrix(1 0 0 1 218.7368 839.7212)" fill="#666666" font-family="'MyriadPro-Regular'" font-size="10.0063">:</text>
		<text transform="matrix(1 0 0 1 221.2593 839.7212)" fill="#666666" font-family="'MyriadPro-Regular'" font-size="10.0063">N</text>
	</g>
</g>
<g id="Drawing_94_3_">
	<path fill="#FFFFFF" d="M133.078,753.19h-6.889v-13.068h13.777v13.068H133.078z"/>
	<path fill="none" stroke="#FFFFFF" stroke-linejoin="round" d="M133.078,753.19h-6.889v-13.068h13.777v13.068H133.078z"/>
	<g>
		<text transform="matrix(1 0 0 1 130.7837 751.0923)" fill="#666666" font-family="'MyriadPro-Regular'" font-size="13.011">1</text>
	</g>
</g>
<g id="Drawing_94_4_">
	<path fill="#FFFFFF" d="M437.227,751.953h-6.889v-13.068h13.777v13.068H437.227z"/>
	<path fill="none" stroke="#FFFFFF" stroke-linejoin="round" d="M437.227,751.953h-6.889v-13.068h13.777v13.068H437.227z"/>
	<g>
		<text transform="matrix(1 0 0 1 434.9326 749.855)" fill="#666666" font-family="'MyriadPro-Regular'" font-size="13.011">1</text>
	</g>
</g>
<g id="Drawing_95_4_">
	<path fill="#FFFFFF" d="M356.477,839.595h-12.188v-10.432h24.378v10.432H356.477z"/>
	<path fill="none" stroke="#FFFFFF" stroke-linejoin="round" d="M356.477,839.595h-12.188v-10.432h24.378v10.432H356.477z"/>
	<g>
		<text transform="matrix(1 0 0 1 348.3125 838.8306)" fill="#666666" font-family="'MyriadPro-Regular'" font-size="13.011">0</text>
	</g>
	<g>
		<text transform="matrix(1 0 0 1 355.3994 838.8306)" fill="#666666" font-family="'MyriadPro-Regular'" font-size="10.0063">:</text>
		<text transform="matrix(1 0 0 1 357.9219 838.8306)" fill="#666666" font-family="'MyriadPro-Regular'" font-size="10.0063">N</text>
	</g>
</g>
<text transform="matrix(0.9998 -0.0175 0.0175 0.9998 121.7368 791.6987)"><tspan x="0" y="0" font-family="'MyriadPro-Regular'" font-size="10">p</tspan><tspan x="5.863" y="0.073" font-family="'MyriadPro-Regular'" font-size="10">l</tspan><tspan x="8.396" y="0.139" font-family="'MyriadPro-Regular'" font-size="10">a</tspan><tspan x="13.389" y="0.223" font-family="'MyriadPro-Regular'" font-size="10">c</tspan><tspan x="18.042" y="0.309" font-family="'MyriadPro-Regular'" font-size="10">e</tspan><tspan x="23.225" y="0.391" font-family="'MyriadPro-Regular'" font-size="10">s</tspan></text>
<path fill="#FFFFFF" stroke="#333333" stroke-linejoin="round" d="M438.552,772.884l26.873,16.355l-26.873,16.355l-26.871-16.355
	L438.552,772.884L438.552,772.884z"/>
<g>
	<text transform="matrix(1 0 0 1 279.3896 736.689)" fill="#333333" font-family="'MyriadPro-Regular'" font-size="10.0063">       </text>
	<text transform="matrix(1 0 0 1 279.3896 736.689)" fill="#333333" font-family="'MyriadPro-Regular'" font-size="10.0063">l</text>
	<text transform="matrix(1 0 0 1 281.6582 736.689)" fill="#333333" font-family="'MyriadPro-Regular'" font-size="10.0063">i</text>
	<text transform="matrix(1 0 0 1 283.8408 736.689)" fill="#333333" font-family="'MyriadPro-Regular'" font-size="10.0063">n</text>
	<text transform="matrix(1 0 0 1 289.2266 736.689)" fill="#333333" font-family="'MyriadPro-Regular'" font-size="10.0063">k</text>
	<text transform="matrix(1 0 0 1 294.1582 736.689)" fill="#333333" font-family="'MyriadPro-Regular'" font-size="10.0063">s</text>
	<text transform="matrix(1 0 0 1 298.3535 736.689)" fill="#333333" font-family="'MyriadPro-Regular'" font-size="10.0063">T</text>
	<text transform="matrix(1 0 0 1 302.8037 736.689)" fill="#333333" font-family="'MyriadPro-Regular'" font-size="10.0063">o</text>
</g>
<g>
	<text transform="matrix(1 0 0 1 424.5195 792.689)" fill="#333333" font-family="'MyriadPro-Regular'" font-size="10.0063">       </text>
	<text transform="matrix(1 0 0 1 424.5195 792.689)" fill="#333333" font-family="'MyriadPro-Regular'" font-size="10.0063">l</text>
	<text transform="matrix(1 0 0 1 426.7881 792.689)" fill="#333333" font-family="'MyriadPro-Regular'" font-size="10.0063">i</text>
	<text transform="matrix(1 0 0 1 428.9707 792.689)" fill="#333333" font-family="'MyriadPro-Regular'" font-size="10.0063">n</text>
	<text transform="matrix(1 0 0 1 434.3564 792.689)" fill="#333333" font-family="'MyriadPro-Regular'" font-size="10.0063">k</text>
	<text transform="matrix(1 0 0 1 439.2881 792.689)" fill="#333333" font-family="'MyriadPro-Regular'" font-size="10.0063">s</text>
	<text transform="matrix(1 0 0 1 443.4834 792.689)" fill="#333333" font-family="'MyriadPro-Regular'" font-size="10.0063">T</text>
	<text transform="matrix(1 0 0 1 447.9336 792.689)" fill="#333333" font-family="'MyriadPro-Regular'" font-size="10.0063">o</text>
</g>
</svg>
