<?xml version="1.0" encoding="utf-8"?>
<!-- Generator: Adobe Illustrator 16.0.0, SVG Export Plug-In . SVG Version: 6.00 Build 0)  -->
<!DOCTYPE svg PUBLIC "-//W3C//DTD SVG 1.1//EN" "http://www.w3.org/Graphics/SVG/1.1/DTD/svg11.dtd">
<svg version="1.1" id="Layer_1" xmlns="http://www.w3.org/2000/svg" xmlns:xlink="http://www.w3.org/1999/xlink" x="0px" y="0px"
	 width="79.5px" height="79.5px" viewBox="10 -1.609 79.5 79.5" enable-background="new 10 -1.609 79.5 79.5" xml:space="preserve">
<g id="Layer_1_1_">
</g>
<g id="Layer_3">
</g>
<g>
	<path d="M23.925,39.677l18.68,10.439c1.648,0.961,3.845,0.274,4.669-1.374l0.275-0.549c0.412-0.824,0.549-1.648,0.274-2.609
		c-0.274-0.824-0.824-1.648-1.648-2.061L32.716,35.97l-5.22-2.885c-0.549-0.274-1.099-0.412-1.648-0.412
		c-1.236,0-2.334,0.687-3.021,1.786l-0.274,0.549c-0.412,0.824-0.549,1.648-0.275,2.609C22.552,38.579,23.102,39.266,23.925,39.677z
		"/>
	<path d="M39.583,11.521L58.262,21.96c1.647,0.961,3.846,0.275,4.67-1.373l0.274-0.549c0.412-0.825,0.55-1.649,0.274-2.61
		c-0.274-0.824-0.823-1.647-1.647-2.06L43.292,4.929c-0.549-0.274-1.099-0.412-1.649-0.412c-1.236,0-2.334,0.687-3.022,1.786
		l-0.274,0.549c-0.412,0.824-0.549,1.648-0.275,2.61C38.209,10.286,38.896,10.972,39.583,11.521z"/>
	<rect x="33.988" y="17.849" transform="matrix(-0.8735 -0.4868 0.4868 -0.8735 67.1648 72.377)" width="17.993" height="19.228"/>
	<path d="M82.571,46.408L54.554,30.75l-2.747,4.807l28.019,15.52c0.412,0.274,0.824,0.412,1.373,0.412
		c0.961,0,1.923-0.55,2.473-1.373C84.357,48.742,83.809,47.095,82.571,46.408z"/>
	<path d="M75.018,58.494H24.2c-2.609,0-4.67,2.335-4.67,5.355c0,2.885,2.061,5.357,4.67,5.357h50.817c2.61,0,4.67-2.335,4.67-5.357
		C79.688,60.829,77.628,58.494,75.018,58.494z"/>
</g>
</svg>
