<?xml version="1.0" encoding="utf-8"?>
<!-- Generator: Adobe Illustrator 16.0.0, SVG Export Plug-In . SVG Version: 6.00 Build 0)  -->
<!DOCTYPE svg PUBLIC "-//W3C//DTD SVG 1.1//EN" "http://www.w3.org/Graphics/SVG/1.1/DTD/svg11.dtd">
<svg version="1.1" id="Layer_1" xmlns="http://www.w3.org/2000/svg" xmlns:xlink="http://www.w3.org/1999/xlink" x="0px" y="0px"
	 width="577px" height="664px" viewBox="610.5 78 577 664" enable-background="new 610.5 78 577 664" xml:space="preserve">
<g>
	<path fill="#CCCCFF" fill-opacity="0" stroke="#333333" stroke-width="2" d="M828.5,102h159c1.104,0,2,0.896,2,2v136
		c0,1.104-0.896,2-2,2h-159c-1.104,0-2-0.896-2-2V104C826.5,102.896,827.396,102,828.5,102z"/>
	<text transform="matrix(1 0 0 1 882.8174 126)" fill="#333333" font-family="'ArialMT'" font-size="12">«screen»</text>
	<text transform="matrix(1 0 0 1 858.5 145)" fill="#333333" font-family="'Arial-BoldMT'" font-size="12">OwnAuctionsPage</text>
	<line fill="none" stroke="#333333" x1="827.5" y1="157" x2="988.5" y2="157"/>
	<line fill="none" stroke="#333333" x1="827.5" y1="187" x2="988.5" y2="187"/>
	<text transform="matrix(1 0 0 1 836.5 206)" fill="#333333" font-family="'ArialMT'" font-size="12">showAuctionDetails()</text>
	<text transform="matrix(1 0 0 1 836.5 228)" fill="#333333" font-family="'ArialMT'" font-size="12">createNewAuction()</text>
	<text transform="matrix(1 0 0 1 835.5 176)" fill="#333333" font-family="'ArialMT'" font-size="12">AuctionsList</text>
</g>
<g>
	<path fill="#CCCCFF" fill-opacity="0" stroke="#333333" stroke-width="2" d="M987,341.5h139c1.104,0,2,0.896,2,2v102
		c0,1.104-0.896,2-2,2H987c-1.104,0-2-0.896-2-2v-102C985,342.396,985.896,341.5,987,341.5z"/>
	<text transform="matrix(1 0 0 1 1028 365.5)" fill="#333333" font-family="'ArialMT'" font-size="12">«screen»</text>
	<text transform="matrix(1 0 0 1 1004.5 382.5)" fill="#333333" font-family="'Arial-BoldMT'" font-size="12">NewAuctionPage</text>
	<line fill="none" stroke="#333333" x1="986" y1="396.5" x2="1127" y2="396.5"/>
	<text transform="matrix(1 0 0 1 1003 416.5)" fill="#333333" font-family="'ArialMT'" font-size="12">sessionMesssage</text>
	<line fill="none" stroke="#333333" x1="986" y1="430.5" x2="1127" y2="430.5"/>
</g>
<g>
	<path fill="#CCCCFF" fill-opacity="0" stroke="#333333" stroke-width="2" d="M1009,521.5h93c1.104,0,2,0.584,2,1.305v166.391
		c0,0.721-0.896,1.305-2,1.305h-93c-1.104,0-2-0.584-2-1.305V522.805C1007,522.084,1007.896,521.5,1009,521.5z"/>
	<text transform="matrix(1 0 0 1 1017 629.5)" fill="#333333" font-family="'ArialMT'" font-size="12">category</text>
	<text transform="matrix(1 0 0 1 1021.6484 545.5)" fill="#333333" font-family="'ArialMT'" font-size="12">«input form»</text>
	<text transform="matrix(1 0 0 1 1018.6611 562.5)" fill="#333333" font-family="'Arial-BoldMT'" font-size="12">AuctionForm</text>
	<line fill="none" stroke="#333333" x1="1008" y1="576.5" x2="1103" y2="576.5"/>
	<text transform="matrix(1 0 0 1 1017 596.5)" fill="#333333" font-family="'ArialMT'" font-size="12">name</text>
	<text transform="matrix(1 0 0 1 1017 613.5)" fill="#333333" font-family="'ArialMT'" font-size="12">description</text>
	<text transform="matrix(1 0 0 1 1017 647.5)" fill="#333333" font-family="'ArialMT'" font-size="12">endTime</text>
	<line fill="none" stroke="#333333" x1="1005.5" y1="658.5" x2="1100.5" y2="658.5"/>
	<text transform="matrix(1 0 0 1 1014 678.5)" fill="#333333" font-family="'ArialMT'" font-size="12">submit()</text>
</g>
<g>
	<path fill="none" stroke="#333333" d="M730,161"/>
</g>
<g>
	<path fill="none" stroke="#333333" d="M1062,449.5v74"/>
	<path fill="#FAFAFA" stroke="#333333" d="M1062,449.5l-6,10.393l6,10.392l6-10.392L1062,449.5z"/>
</g>
<g>
	<path fill="none" stroke="#333333" d="M1008,610.5H746.833v-69.107"/>
	<polyline fill="#FFFFFF" fill-opacity="0" stroke="#333333" points="752.5,551.393 746.5,541.393 740.5,551.393 	"/>
</g>
<g>
	<path fill="#FFFFFF" d="M884,589.5h48c2.209,0,4,1.791,4,4v6c0,2.209-1.791,4-4,4h-48c-2.209,0-4-1.791-4-4v-6
		C880,591.291,881.791,589.5,884,589.5z"/>
	<text transform="matrix(1 0 0 1 880 600.5)" fill="#333333" font-family="'ArialMT'" font-size="12">submit OK</text>
</g>
<g>
	<path fill="#FFFFFF" d="M1061.5,300h85c2.209,0,4,1.791,4,4v6c0,2.209-1.791,4-4,4h-85c-2.209,0-4-1.791-4-4v-6
		C1057.5,301.791,1059.291,300,1061.5,300z"/>
	<text transform="matrix(1 0 0 1 1057.5 311)" fill="#333333" font-family="'ArialMT'" font-size="12">createNewAuction()</text>
</g>
<g>
	<path fill="none" stroke="#333333" d="M1030,690.5v19h49l-1-19"/>
	<polyline fill="#FFFFFF" fill-opacity="0" stroke="#333333" points="1084,700.5 1078,690.5 1072,700.5 	"/>
</g>
<g>
	<path fill="#FFFFFF" d="M1022,710.5h74c2.209,0,4,1.791,4,4v6c0,2.209-1.791,4-4,4h-74c-2.209,0-4-1.791-4-4v-6
		C1018,712.291,1019.791,710.5,1022,710.5z"/>
	<text transform="matrix(1 0 0 1 1018 721.5)" fill="#333333" font-family="'ArialMT'" font-size="12">submit ERROR</text>
</g>
<g>
	<path fill="#CCCCFF" fill-opacity="0" stroke="#333333" stroke-width="2" d="M677.333,342h139c1.104,0,2,1.689,2,3.774v192.453
		c0,2.084-0.896,3.773-2,3.773h-139c-1.104,0-2-1.689-2-3.773V345.774C675.333,343.689,676.229,342,677.333,342z"/>
	<text transform="matrix(1 0 0 1 718.333 366)" fill="#333333" font-family="'ArialMT'" font-size="12">«screen»</text>
	<text transform="matrix(1 0 0 1 708.333 383)" fill="#333333" font-family="'Arial-BoldMT'" font-size="12">AuctionPage</text>
	<line fill="none" stroke="#333333" x1="676.333" y1="397" x2="817.333" y2="397"/>
	<text transform="matrix(1 0 0 1 685.333 417)" fill="#333333" font-family="'ArialMT'" font-size="12">sessionMesssage</text>
	<line fill="none" stroke="#333333" x1="676.333" y1="518.5" x2="817.333" y2="518.5"/>
	<text transform="matrix(1 0 0 1 687.333 433)" fill="#333333" font-family="'ArialMT'" font-size="12">title</text>
	<text transform="matrix(1 0 0 1 686.333 485)" fill="#333333" font-family="'ArialMT'" font-size="12">timeLeft</text>
	<text transform="matrix(1 0 0 1 685.333 467)" fill="#333333" font-family="'ArialMT'" font-size="12">category</text>
	<text transform="matrix(1 0 0 1 685.333 504.5)" fill="#333333" font-family="'ArialMT'" font-size="12">description</text>
	<text transform="matrix(1 0 0 1 686.333 449)" fill="#333333" font-family="'ArialMT'" font-size="12">seller</text>
</g>
<text transform="matrix(1 0 0 1 636 300)" fill="#333333" font-family="'ArialMT'" font-size="12">showAuctionDetails()</text>
<g>
	<path fill="none" stroke="#333333" d="M1053,341.5c0-34.5,0-44.5,0-79L942.5,262v-18.667"/>
	<polyline fill="#FFFFFF" fill-opacity="0" stroke="#333333" points="1047,331.5 1053,341.5 1059,331.5 	"/>
</g>
<g>
	<path fill="none" stroke="#333333" d="M863.333,242v18.667L752.833,261c0,34.5,0,44.667,0,79.167"/>
	<polyline fill="#FFFFFF" fill-opacity="0" stroke="#333333" points="746.833,330.167 752.833,340.167 758.833,330.167 	"/>
</g>
</svg>
