<?xml version="1.0" encoding="utf-8"?>
<!-- Generator: Adobe Illustrator 16.0.0, SVG Export Plug-In . SVG Version: 6.00 Build 0)  -->
<!DOCTYPE svg PUBLIC "-//W3C//DTD SVG 1.1//EN" "http://www.w3.org/Graphics/SVG/1.1/DTD/svg11.dtd">
<svg version="1.1" id="Layer_1" xmlns="http://www.w3.org/2000/svg" xmlns:xlink="http://www.w3.org/1999/xlink" x="0px" y="0px"
	 width="79.5px" height="79.5px" viewBox="10 -1.609 79.5 79.5" enable-background="new 10 -1.609 79.5 79.5" xml:space="preserve">
<g id="Layer_1_1_">
</g>
<g id="Layer_3">
</g>
<g id="Layer_4">
	<path d="M42.972,15.062v0.001c0.005,0,0.01-0.001,0.015-0.001c2.147,0,3.944,1.241,4.552,2.939
		c0.644-0.373,1.364-0.589,2.129-0.589c0.772,0,1.5,0.22,2.148,0.6c0.604-1.703,2.404-2.949,4.555-2.949
		c0.006,0,0.012,0.001,0.016,0.001v-0.001h3.475c0.053-0.003,0.107-0.005,0.161-0.01c-1.104-4.335-5.269-7.561-10.252-7.561
		c-4.988,0-9.153,3.23-10.255,7.569L42.972,15.062L42.972,15.062z"/>
	<path d="M85.947,45.395l-16.4-24.04c-0.202-0.297-0.439-0.554-0.693-0.787c0.428,1.044,0.669,2.185,0.669,3.381
		c0,3.185-1.681,5.978-4.194,7.56l5.254,7.7l-7.08-2.399c-4.973-1.395-10.818-1.615-10.818-1.615
		c1.652-0.604,3.097-1.703,4.17-3.144c-2.913-1.352-4.982-4.221-5.174-7.592c0,0-0.098-2.471-2.037-2.455
		c-1.677,0.014-1.938,1.668-2.003,2.436c-0.001,3.514-2.013,6.065-4.972,7.521c1.086,1.493,2.563,2.627,4.261,3.241
		c0,0-6.301,0.17-10.933,1.608l-7.079,2.399l5.203-7.626c-2.582-1.568-4.317-4.399-4.317-7.634c0-1.085,0.205-2.12,0.56-3.083
		c-0.142,0.156-0.288,0.309-0.411,0.489l-16.4,24.04c-1.116,1.635-1.062,3.801,0.136,5.379c0.887,1.169,2.255,1.819,3.667,1.819
		c0.493,0,0.991-0.079,1.476-0.244l15.318-5.192V68.79h31.03V47.1l15.487,5.249c0.485,0.165,0.983,0.244,1.476,0.244
		c1.412,0,2.781-0.65,3.668-1.819C87.008,49.195,87.063,47.029,85.947,45.395z"/>
</g>
<g id="Layer_5">
	<g>
		<g>
			<path d="M38.739,31.05c-3.916,0-7.102-3.185-7.102-7.101c0-3.915,3.186-7.101,7.102-7.101c3.917,0,7.103,3.186,7.103,7.101
				C45.842,27.865,42.655,31.05,38.739,31.05L38.739,31.05z M38.739,20.513c-1.895,0-3.436,1.541-3.436,3.436
				c0,1.894,1.542,3.436,3.436,3.436c1.896,0,3.438-1.542,3.438-3.436S40.634,20.513,38.739,20.513L38.739,20.513z"/>
		</g>
		<g>
			<path d="M60.59,31.05c-3.917,0-7.104-3.185-7.104-7.101c0-3.915,3.187-7.101,7.104-7.101c3.915,0,7.101,3.186,7.101,7.101
				C67.69,27.865,64.505,31.05,60.59,31.05L60.59,31.05z M60.59,20.513c-1.896,0-3.436,1.541-3.436,3.436
				c0,1.894,1.54,3.436,3.436,3.436c1.894,0,3.436-1.542,3.436-3.436S62.483,20.513,60.59,20.513L60.59,20.513z"/>
		</g>
	</g>
</g>
</svg>
