<?xml version="1.0" encoding="utf-8"?>
<!-- Generator: Adobe Illustrator 16.0.0, SVG Export Plug-In . SVG Version: 6.00 Build 0)  -->
<!DOCTYPE svg PUBLIC "-//W3C//DTD SVG 1.1//EN" "http://www.w3.org/Graphics/SVG/1.1/DTD/svg11.dtd">
<svg version="1.1" id="Layer_1" xmlns="http://www.w3.org/2000/svg" xmlns:xlink="http://www.w3.org/1999/xlink" x="0px" y="0px"
	 width="79.5px" height="79.5px" viewBox="10 -1.609 79.5 79.5" enable-background="new 10 -1.609 79.5 79.5" xml:space="preserve">
<g id="Layer_1_1_">
</g>
<g id="Layer_3">
</g>
<g>
	<rect x="34.016" y="19.77" fill="none" width="31.408" height="35.199"/>
	<g>
		<rect x="34.016" y="19.77" fill="none" width="31.408" height="35.199"/>
		<circle cx="49.566" cy="8.386" r="5.802"/>
		<path d="M66.432,32.451c-0.102,0-0.199,0.016-0.296,0.029V19.059h-3.88c-1.043-2.118-3.006-3.66-5.886-3.66l-13.005-0.006
			c-2.713,0-4.744,1.471-5.818,3.666h-4.24v13.409c-0.078-0.01-0.156-0.017-0.236-0.017c-1.244,0-2.253,1.008-2.253,2.252
			s1.009,2.252,2.253,2.252c0.08,0,0.158-0.008,0.236-0.017v18.743h9.402l-0.002,14.762c0,1.796,1.458,3.254,3.253,3.254
			c1.798,0,3.254-1.458,3.254-3.254l0.001-14.762h1.445l-0.004,14.76c0,1.796,1.456,3.254,3.252,3.254
			c1.797,0,3.252-1.458,3.252-3.254l0.006-14.761h8.969V36.925c0.098,0.015,0.195,0.03,0.296,0.03c1.243,0,2.251-1.008,2.251-2.252
			C68.682,33.458,67.674,32.451,66.432,32.451z M65.424,54.969H34.016V19.77h31.408V54.969z"/>
	</g>
</g>
</svg>
